<?xml version="1.0"?><svg width="1235.468" height="1175" xmlns="http://www.w3.org/2000/svg">
 <title>BLUE STAR</title>
 <metadata id="metadata7">image/svg+xml</metadata>
 <defs>
  <clipPath id="clip0">
   <rect height="331" width="331" id="rect2451"/>
  </clipPath>
 </defs>
 <g>
  <title>Layer 1</title>
  <g transform="matrix(0.381781 -1.175 1.175 0.381781 -3062.77 -459.134)" fill="#cc0000" id="g3069">
   <path d="m376.149994,3535.850098l-809.016998,-587.780029l492.676403,172.540039l316.340595,415.23999z" fill="#0000bf" id="path3071"/>
   <path d="m567.132996,2948.070068l-1000,0l492.621605,185.659912l507.378395,-185.659912z" fill="#0000bf" id="path3073"/>
   <path d="m-241.884003,3535.850098l809.016998,-587.780029l-508.662895,141.790039l-300.354103,445.98999z" fill="#0000bf" id="path3075"/>
   <path d="m376.149994,3535.850098l-309.016891,-951.050049l-52.097002,544.01001l361.113894,407.040039z" fill="#0000bf" id="path3077"/>
   <path d="m-241.884003,3535.850098l309.017105,-951.050049l32.420998,539.089844l-341.438103,411.960205z" fill="#0000bf" id="path3079"/>
  </g>
  <path d="m446.674011,508.631012l331,0l0,330.999969l-331,0l0,-330.999969z" fill="none" id="path2454"/>
  <path d="m-516.028015,861.731995c30.281006,10.786987 58.308014,27.796021 81.948029,49.567017c22.674988,21.130981 41.914978,47.018982 51.071991,76.929016c6.205994,19.231995 4.928986,40.021973 0.825989,59.541992c-4.097992,18.189941 -12.100983,35.530029 -23.753998,50.119995c13.21701,12.920044 26.307007,25.969971 39.558014,38.859985c-1.765015,6.609985 -4.468994,13.349976 -9.899017,17.810059c-4.539978,3.909912 -10.35199,5.809937 -16.071991,7.22998c-12.94101,-13.440063 -25.947998,-26.820068 -38.895996,-40.26001c-16.128998,11.02002 -35.593994,16.829956 -55.029999,17.689941c-24.481995,1.080078 -48.95401,-6.809937 -68.928986,-20.829956c-10.772034,-7.400024 -20.480042,-16.25 -29.387024,-25.790039c-1.525024,1.5 -3.190002,2.839966 -4.901978,4.130005c0.424988,3.200073 0.883972,6.390015 1.325989,9.599976c-3.343018,0.190063 -6.679993,1.01001 -9.488037,2.890015c-8.665955,5.48999 -14.68396,14.02002 -20.834961,22.02002c-7.627014,9.900024 -14.481995,20.890015 -25.111023,27.910034c-6.440979,3.97998 -15.972961,2.289917 -19.917969,-4.400024c-4.126038,-6.560059 -1.746033,-15.030029 2.697998,-20.780029c10.860962,-15.969971 30.252991,-22.789917 42.393982,-37.5c3.15802,-3.949951 5.546021,-8.530029 6.731018,-13.459961c3.101013,0.199951 6.201965,0.400024 9.303955,0.599976c2.628052,-2.660034 5.268005,-5.309937 7.88501,-7.98999c2.91803,-0.069946 5.892029,0.23999 8.774048,-0.319946c3.006958,-2.650024 5.404968,-5.920044 8.120972,-8.850098c2.974976,0.830078 4.666016,3.619995 6.81897,5.610107c13.307007,12.119995 28.525024,22.679932 45.869019,28.069946c22.180023,7.109985 46.889008,4.849976 67.694,-5.48999c-41.671997,-42.900024 -83.20401,-85.950012 -124.81601,-128.911011c-9.33197,9.825012 -18.626953,19.687988 -28.09198,29.38501c-11.559021,-11.791992 -23.231018,-23.473022 -34.848999,-35.207031c21.89801,-21.919983 44.041016,-43.593994 66.060974,-65.393005c19.036011,5.183044 38.048035,10.457031 57.103027,15.577026c-13.020996,11.820984 -26.257019,23.403015 -39.323975,35.172974c43.418945,42.567017 86.622986,85.356018 130.110962,127.856018c10.498016,-12.77002 16.407013,-29.040039 17.210022,-45.5c1.480988,-21.789978 -3.559998,-43.46698 -10.743011,-63.904968c-10.152008,-26.973022 -29.562012,-49.180054 -50.65799,-68.282043c-13.184998,-11.718994 -26.774017,-23.000977 -40.801025,-33.700989z" fill="none" id="path2458"/>
  <g transform="matrix(0.319977 -0.980445 0.984788 0.318566 -2347.55 -152.949)" fill="#cc0000" id="svg_1">
   <path d="m453.955658,3388.745361l-809.016998,-587.780029l492.676407,172.540039l316.340591,415.23999z" fill="#ffffff" id="svg_2"/>
   <path d="m644.93866,2800.965332l-1000,0l492.621613,185.659912l507.378387,-185.659912z" fill="#ffffff" id="svg_3"/>
   <path d="m-164.078323,3388.745361l809.016983,-587.780029l-508.662903,141.790039l-300.35408,445.98999z" fill="#ffffff" id="svg_4"/>
   <path d="m453.955658,3388.745361l-309.016891,-951.050049l-52.097,544.01001l361.113892,407.040039z" fill="#ffffff" id="svg_5"/>
   <path d="m-164.078323,3388.745361l309.01709,-951.050049l32.421005,539.089844l-341.438095,411.960205z" fill="#ffffff" id="svg_6"/>
  </g>
  <g transform="matrix(0.284552 -0.865047 0.875762 0.281071 -1935.09 26.3857)" fill="#cc0000" id="svg_7">
   <path d="m511.800293,3272.085205l-809.016968,-587.779785l492.67601,172.539795l316.340958,415.23999z" fill="#0000bf" id="svg_8"/>
   <path d="m702.783325,2684.30542l-1000,0l492.621002,185.659912l507.378998,-185.659912z" fill="#0000bf" id="svg_9"/>
   <path d="m-106.234169,3272.085205l809.017494,-587.779785l-508.662994,141.789795l-300.3545,445.98999z" fill="#0000bf" id="svg_10"/>
   <path d="m511.799988,3272.090088l-309.016983,-951.050049l-52.098007,544.01001l361.11499,407.040039z" fill="#0000bf" id="svg_11"/>
   <path d="m-106.234169,3272.085205l309.017494,-951.049805l32.421005,539.089844l-341.438499,411.959961z" fill="#0000bf" id="svg_12"/>
  </g>
 </g>
</svg>